<svg width="164" height="35" viewBox="0 0 164 35" fill="none" xmlns="http://www.w3.org/2000/svg">
<path fill-rule="evenodd" clip-rule="evenodd" d="M5.96872 9.23609C8.70907 5.73387 13.0973 3.46493 18.0432 3.46493C23.0182 3.46493 27.4287 5.76065 30.1658 9.29799C30.0493 9.41181 29.9432 9.52978 29.8471 9.64759C29.3458 10.2645 28.9686 11.059 28.6664 11.8659C28.0578 13.4887 27.5936 15.6085 27.1638 17.5935L27.1256 17.7719C26.6968 19.7533 26.2982 21.5959 25.8162 22.9638C25.5997 23.5783 25.3944 24.0128 25.2123 24.291C25.0223 24.0105 24.8068 23.5708 24.5786 22.9475C24.0632 21.5403 23.6296 19.6263 23.1701 17.5827L23.1552 17.5157V17.5157C22.7135 15.5527 22.2451 13.4699 21.661 11.8756C21.3675 11.0747 21.0075 10.2881 20.5366 9.67694C20.0744 9.07718 19.3051 8.40029 18.1799 8.40029C17.0618 8.40029 16.289 9.06983 15.8201 9.66287C15.3401 10.2701 14.9659 11.0534 14.6576 11.8547C14.0367 13.4682 13.5291 15.5789 13.0567 17.5666L13.008 17.7719C12.5402 19.7409 12.1029 21.5818 11.6065 22.9523C11.4171 23.4757 11.2383 23.8739 11.0764 24.1583C10.9182 23.8752 10.7439 23.4797 10.5595 22.9607C10.0834 21.6194 9.66619 19.8301 9.21816 17.9083L9.13972 17.5719C8.67552 15.583 8.17189 13.4685 7.5422 11.85C7.22935 11.0457 6.84668 10.2584 6.3515 9.64838C6.23936 9.5103 6.11194 9.37013 5.96872 9.23609ZM4.3102 11.9253C4.44071 12.1701 4.57879 12.4736 4.72154 12.8406C5.26659 14.2416 5.72833 16.1533 6.20382 18.1905L6.29638 18.5875C6.72929 20.4464 7.17964 22.38 7.7101 23.8739C7.99223 24.6684 8.33296 25.4466 8.77112 26.0514C9.1855 26.6235 9.9289 27.3623 11.072 27.3623C12.2118 27.3623 12.9569 26.627 13.3741 26.0576C13.8161 25.4542 14.1623 24.6769 14.4502 23.8818C15.0019 22.3584 15.4717 20.3794 15.9214 18.4855V18.4854L15.9901 18.1959C16.4746 16.1574 16.9409 14.2419 17.482 12.8358C17.7326 12.1843 17.9673 11.7305 18.1716 11.449C18.3652 11.7281 18.5864 12.1747 18.821 12.815C19.3365 14.2222 19.7697 16.1361 20.2293 18.1798L20.2444 18.2467C20.6859 20.2098 21.1544 22.2926 21.7384 23.8867C22.0319 24.6879 22.3919 25.4745 22.8629 26.0855C23.3251 26.6854 24.0943 27.3623 25.2193 27.3623C26.3503 27.3623 27.1168 26.6792 27.5735 26.074C28.0373 25.4599 28.3861 24.6707 28.6678 23.8708C29.2093 22.3344 29.6398 20.3408 30.0503 18.4444V18.4443L30.1091 18.169C30.5512 16.1278 30.9754 14.2214 31.4993 12.8246C31.6127 12.5208 31.7245 12.2617 31.8311 12.0441C32.6338 13.7921 33.079 15.7223 33.079 17.7513C33.079 25.6413 26.3475 32.0377 18.0432 32.0377C9.73906 32.0377 3.0072 25.6413 3.0072 17.7513C3.0072 15.6762 3.47282 13.7044 4.3102 11.9253ZM18.0432 0.607666C8.07823 0.607666 0 8.28312 0 17.7513C0 27.2194 8.07823 34.8948 18.0432 34.8948C28.0084 34.8948 36.0862 27.2194 36.0862 17.7513C36.0862 8.28312 28.0084 0.607666 18.0432 0.607666ZM18.387 11.2098C18.387 11.2101 18.3835 11.2128 18.3764 11.2167C18.3834 11.2114 18.387 11.2095 18.387 11.2098ZM17.9713 11.2117C17.9643 11.2077 17.9609 11.2049 17.9609 11.2045C17.9609 11.2042 17.9644 11.2062 17.9713 11.2117ZM24.9907 24.5623C24.9907 24.5623 24.9939 24.5592 25.0004 24.5552C24.9939 24.5605 24.9907 24.5627 24.9907 24.5623ZM25.4279 24.5508C25.4349 24.5548 25.4386 24.5574 25.4386 24.5579C25.4386 24.5583 25.4349 24.5561 25.4279 24.5508ZM10.7638 24.5879C10.7638 24.5875 10.7681 24.5835 10.7768 24.5778C10.7682 24.5853 10.7638 24.5884 10.7638 24.5879ZM11.3728 24.5804C11.3814 24.5862 11.3857 24.5901 11.3857 24.5906C11.3857 24.591 11.3813 24.5884 11.3728 24.5804Z" fill="#81818B"/>
<path d="M46.0492 27.9007L41.6738 13.6801H45.5063L48.1014 23.9154L51.1186 13.6801H55.4036L58.4213 23.9154L61.0463 13.6801H64.8788L60.473 27.9007H56.4599L53.2611 17.2639L50.0628 27.9007H46.0492Z" fill="#81818B"/>
<path d="M70.5021 28.2449C69.2148 28.2449 68.1585 28.0533 67.3338 27.6711C66.5095 27.2698 65.8958 26.7442 65.4931 26.0943C65.091 25.4444 64.8899 24.7277 64.8899 23.9442C64.8899 22.6254 65.4327 21.5549 66.519 20.733C67.6052 19.9112 69.2353 19.5002 71.4078 19.5002H75.2098V19.1562C75.2098 18.1813 74.9179 17.4646 74.3346 17.0059C73.7514 16.5471 73.0269 16.3178 72.1622 16.3178C71.3773 16.3178 70.6932 16.4993 70.11 16.8625C69.5267 17.2066 69.1644 17.7226 69.0237 18.4107H65.2516C65.3524 17.3786 65.7147 16.4802 66.3378 15.7157C66.982 14.9512 67.8068 14.3682 68.8122 13.9668C69.8186 13.5463 70.9447 13.3361 72.1921 13.3361C74.3247 13.3361 76.0041 13.8425 77.2316 14.8556C78.4585 15.8686 79.0722 17.3022 79.0722 19.1562V27.9007H75.7826L75.4209 25.6072C74.9783 26.3717 74.3546 27.0022 73.5503 27.4995C72.7654 27.9963 71.7495 28.2449 70.5021 28.2449ZM71.3773 25.3776C72.484 25.3776 73.3387 25.0334 73.9419 24.3455C74.5656 23.6575 74.9583 22.8067 75.1195 21.7938H71.8299C70.804 21.7938 70.0701 21.9754 69.627 22.3386C69.1849 22.6824 68.9634 23.1129 68.9634 23.6287C68.9634 24.1831 69.1849 24.6131 69.627 24.9188C70.0701 25.2245 70.6528 25.3776 71.3773 25.3776Z" fill="#81818B"/>
<path d="M85.1523 27.9007L79.6608 13.6801H83.7038L87.5058 24.4317L91.3079 13.6801H95.3514L89.8295 27.9007H85.1523Z" fill="#81818B"/>
<path d="M103.116 28.2449C101.607 28.2449 100.27 27.9388 99.1025 27.3273C97.9359 26.7155 97.0209 25.8554 96.3567 24.7467C95.6926 23.6385 95.3613 22.3577 95.3613 20.905C95.3613 19.4333 95.6832 18.124 96.3263 16.9772C96.9904 15.8304 97.8955 14.9416 99.0426 14.3108C100.209 13.661 101.577 13.3361 103.146 13.3361C104.614 13.3361 105.912 13.6419 107.039 14.2535C108.165 14.8651 109.041 15.7061 109.664 16.7765C110.308 17.8277 110.63 19.0032 110.63 20.303C110.63 20.5132 110.619 20.733 110.599 20.9624C110.599 21.1918 110.589 21.4307 110.569 21.6791H99.1933C99.2736 22.7877 99.6763 23.6575 100.4 24.2884C101.144 24.9188 102.04 25.2343 103.086 25.2343C103.87 25.2343 104.524 25.0719 105.047 24.7467C105.59 24.403 105.993 23.9632 106.254 23.4279H110.177C109.895 24.3264 109.422 25.1485 108.759 25.8939C108.115 26.6199 107.31 27.1933 106.344 27.614C105.399 28.0343 104.323 28.2449 103.116 28.2449ZM103.146 16.3178C102.201 16.3178 101.366 16.5758 100.641 17.0919C99.9173 17.5888 99.4548 18.3534 99.2532 19.3855H106.707C106.646 18.4489 106.284 17.7035 105.62 17.1492C104.956 16.5949 104.132 16.3178 103.146 16.3178Z" fill="#81818B"/>
<path d="M112.671 27.9007V7.25781H116.534V27.9007H112.671Z" fill="#81818B"/>
<path d="M126.545 28.2449C125.036 28.2449 123.699 27.9388 122.532 27.3273C121.365 26.7155 120.45 25.8554 119.786 24.7467C119.122 23.6385 118.791 22.3577 118.791 20.905C118.791 19.4333 119.112 18.124 119.755 16.9772C120.42 15.8304 121.325 14.9416 122.472 14.3108C123.638 13.661 125.006 13.3361 126.575 13.3361C128.044 13.3361 129.341 13.6419 130.468 14.2535C131.594 14.8651 132.47 15.7061 133.093 16.7765C133.737 17.8277 134.059 19.0032 134.059 20.303C134.059 20.5132 134.049 20.733 134.029 20.9624C134.029 21.1918 134.018 21.4307 133.998 21.6791H122.622C122.703 22.7877 123.105 23.6575 123.829 24.2884C124.573 24.9188 125.469 25.2343 126.515 25.2343C127.299 25.2343 127.953 25.0719 128.476 24.7467C129.02 24.403 129.422 23.9632 129.683 23.4279H133.607C133.325 24.3264 132.852 25.1485 132.188 25.8939C131.544 26.6199 130.74 27.1933 129.774 27.614C128.829 28.0343 127.752 28.2449 126.545 28.2449ZM126.575 16.3178C125.63 16.3178 124.795 16.5758 124.07 17.0919C123.346 17.5888 122.884 18.3534 122.682 19.3855H130.136C130.075 18.4489 129.714 17.7035 129.05 17.1492C128.385 16.5949 127.561 16.3178 126.575 16.3178Z" fill="#81818B"/>
<path d="M142.286 28.2449C140.959 28.2449 139.792 28.044 138.786 27.6428C137.78 27.222 136.975 26.6487 136.372 25.9222C135.769 25.1962 135.406 24.3552 135.286 23.3996H139.178C139.299 23.9535 139.621 24.4317 140.144 24.833C140.687 25.2152 141.381 25.4064 142.226 25.4064C143.071 25.4064 143.684 25.244 144.066 24.9188C144.469 24.5941 144.67 24.2212 144.67 23.8008C144.67 23.189 144.389 22.778 143.825 22.5678C143.262 22.3386 142.477 22.1188 141.471 21.9085C140.828 21.7747 140.174 21.6123 139.51 21.4211C138.846 21.23 138.233 20.991 137.67 20.7044C137.126 20.3985 136.684 20.0163 136.341 19.5575C136 19.0797 135.829 18.4967 135.829 17.8086C135.829 16.5471 136.352 15.4864 137.398 14.6262C138.464 13.7661 139.952 13.3361 141.864 13.3361C143.634 13.3361 145.042 13.7279 146.088 14.5115C147.154 15.2952 147.788 16.3751 147.989 17.7513H144.338C144.117 16.7001 143.282 16.1744 141.834 16.1744C141.109 16.1744 140.546 16.3082 140.144 16.5758C139.762 16.8434 139.571 17.1779 139.571 17.5793C139.571 17.9998 139.862 18.3343 140.446 18.5828C141.029 18.8312 141.803 19.0606 142.769 19.2709C143.815 19.5002 144.77 19.7582 145.635 20.0449C146.521 20.3125 147.225 20.7235 147.748 21.2778C148.271 21.8129 148.532 22.5869 148.532 23.6C148.553 24.4795 148.311 25.2723 147.808 25.9797C147.305 26.6867 146.581 27.2411 145.635 27.6428C144.69 28.044 143.574 28.2449 142.286 28.2449Z" fill="#81818B"/>
<path d="M156.933 28.2449C155.605 28.2449 154.438 28.044 153.433 27.6428C152.427 27.222 151.622 26.6487 151.019 25.9222C150.415 25.1962 150.053 24.3552 149.932 23.3996H153.825C153.946 23.9535 154.267 24.4317 154.79 24.833C155.334 25.2152 156.027 25.4064 156.872 25.4064C157.717 25.4064 158.331 25.244 158.713 24.9188C159.115 24.5941 159.317 24.2212 159.317 23.8008C159.317 23.189 159.035 22.778 158.472 22.5678C157.909 22.3386 157.124 22.1188 156.118 21.9085C155.474 21.7747 154.821 21.6123 154.157 21.4211C153.493 21.23 152.879 20.991 152.316 20.7044C151.773 20.3985 151.33 20.0163 150.988 19.5575C150.646 19.0797 150.475 18.4967 150.475 17.8086C150.475 16.5471 150.999 15.4864 152.045 14.6262C153.111 13.7661 154.599 13.3361 156.51 13.3361C158.281 13.3361 159.689 13.7279 160.735 14.5115C161.801 15.2952 162.434 16.3751 162.636 17.7513H158.985C158.764 16.7001 157.929 16.1744 156.48 16.1744C155.756 16.1744 155.192 16.3082 154.79 16.5758C154.408 16.8434 154.217 17.1779 154.217 17.5793C154.217 17.9998 154.508 18.3343 155.092 18.5828C155.675 18.8312 156.45 19.0606 157.415 19.2709C158.462 19.5002 159.417 19.7582 160.282 20.0449C161.167 20.3125 161.872 20.7235 162.394 21.2778C162.917 21.8129 163.179 22.5869 163.179 23.6C163.199 24.4795 162.958 25.2723 162.455 25.9797C161.952 26.6867 161.228 27.2411 160.282 27.6428C159.337 28.044 158.22 28.2449 156.933 28.2449Z" fill="#81818B"/>
</svg>
